<?xml version="1.0" encoding="UTF-8" standalone="no"?>
<!DOCTYPE svg PUBLIC "-//W3C//DTD SVG 1.1//EN" "http://www.w3.org/Graphics/SVG/1.1/DTD/svg11.dtd">
<svg width="100%" height="100%" viewBox="0 0 1920 540" version="1.1" xmlns="http://www.w3.org/2000/svg" xmlns:xlink="http://www.w3.org/1999/xlink" xml:space="preserve" xmlns:serif="http://www.serif.com/" style="fill-rule:evenodd;clip-rule:evenodd;stroke-linejoin:round;stroke-miterlimit:2;">
    <g transform="matrix(1.00174,0,0,1.01039,-3.33984,-5.61087)">
        <rect x="2.787" y="5.059" width="1915.66" height="534.997" style="fill:rgb(0,114,188);"/>
    </g>
    <g transform="matrix(0.1,0,0,-0.1,0,540)">
        <g transform="matrix(1,0,0,1,-1074.77,384.625)">
            <path d="M13340,4062C13294,3981 13255,3913 13253,3911C13251,3908 13216,3939 13175,3980L13100,4054L13073,4029C13057,4015 13019,3981 12987,3952L12929,3900L12833,3977L12737,4053L12593,3982C12514,3942 12448,3910 12446,3910C12444,3910 12439,3929 12436,3953C12417,4076 12292,4173 12173,4156C12089,4145 12007,4083 11976,4008C11938,3918 11971,3792 12049,3730L12090,3697L12090,1130L12310,1130L12310,1708C12310,2343 12312,2365 12371,2481C12410,2559 12515,2667 12587,2704C12741,2782 12941,2776 13084,2690C13158,2646 13242,2553 13281,2475C13337,2359 13340,2330 13340,1703L13340,1130L13551,1130L13547,1758C13544,2454 13546,2429 13474,2575C13387,2754 13219,2890 13021,2941C12915,2969 12734,2969 12629,2942C12537,2917 12434,2866 12365,2811L12315,2771L12312,3237C12310,3674 12311,3705 12327,3714C12360,3732 12410,3794 12422,3830C12432,3863 12442,3870 12578,3935C12658,3974 12729,4005 12735,4004C12741,4003 12788,3970 12838,3930L12930,3858L13016,3935L13103,4012L13181,3934C13224,3891 13261,3858 13263,3861C13265,3863 13301,3925 13342,3998C13384,4072 13420,4128 13423,4123C13426,4119 13453,4052 13485,3975C13516,3898 13543,3834 13545,3832C13547,3830 13588,3851 13638,3879C13687,3907 13734,3930 13742,3930C13749,3930 13779,3914 13807,3895C13836,3876 13862,3860 13866,3860C13870,3860 13920,3887 13977,3921L14080,3982L14161,3905L14243,3829L14317,3969C14358,4047 14394,4110 14398,4110C14402,4110 14442,4056 14488,3990C14534,3924 14575,3870 14580,3870C14584,3870 14618,3883 14654,3899L14719,3929L14757,3880C14778,3853 14799,3831 14804,3830C14808,3830 14857,3859 14911,3895C14966,3931 15013,3960 15016,3960C15019,3960 15060,3930 15107,3894C15154,3858 15194,3831 15196,3833C15198,3835 15226,3899 15258,3975C15289,4051 15320,4115 15325,4116C15331,4118 15377,4068 15429,4005C15481,3942 15526,3892 15529,3894C15532,3896 15563,3914 15598,3934L15660,3972L15725,3950C15797,3926 15820,3909 15820,3879C15820,3845 15858,3784 15904,3743L15949,3703L15952,2624C15955,1630 15957,1540 15973,1486C16028,1301 16153,1184 16338,1144C16382,1135 16470,1130 16593,1130L16780,1130L16780,1328L16583,1332C16352,1337 16309,1349 16240,1428C16170,1507 16170,1503 16170,2147L16170,2720L16780,2720L16780,2930L16170,2930L16170,3712L16214,3751C16350,3871 16304,4094 16129,4155C16106,4163 16073,4170 16056,4170C15960,4170 15851,4091 15828,4005C15821,3980 15811,3960 15804,3960C15798,3960 15763,3971 15726,3985L15660,4010L15603,3975C15571,3956 15541,3940 15535,3940C15530,3940 15478,3997 15421,4065C15363,4134 15313,4187 15310,4183C15306,4178 15279,4117 15250,4045C15221,3974 15194,3907 15188,3897C15180,3882 15170,3887 15102,3940C15059,3973 15021,4000 15017,4000C15013,4000 14965,3970 14910,3934L14810,3867L14788,3896C14775,3912 14756,3935 14745,3948L14724,3972L14662,3941C14628,3924 14597,3910 14592,3910C14588,3910 14542,3971 14490,4046C14410,4160 14394,4179 14384,4165C14378,4157 14342,4091 14306,4020C14269,3948 14236,3890 14233,3890C14230,3890 14195,3920 14154,3956L14081,4022L13980,3961C13924,3927 13875,3900 13870,3900C13865,3900 13836,3916 13806,3935C13776,3954 13746,3970 13740,3970C13734,3970 13693,3949 13649,3924C13604,3899 13565,3881 13562,3884C13559,3888 13526,3962 13490,4050L13424,4209L13340,4062Z" style="fill:white;fill-rule:nonzero;"/>
        </g>
        <g transform="matrix(1,0,0,1,-1074.77,384.625)">
            <path d="M9393,2959C9178,2938 8996,2853 8846,2703C8724,2581 8637,2429 8594,2260C8565,2146 8567,1884 8598,1777C8695,1438 8960,1189 9305,1114C9414,1091 9640,1090 9734,1113C10010,1182 10238,1367 10359,1621C10413,1733 10431,1804 10437,1928L10443,2030L10220,2030L10220,1981C10220,1674 9980,1388 9663,1316C9574,1296 9428,1296 9335,1315C9101,1364 8893,1559 8818,1800C8798,1864 8795,1896 8795,2020C8795,2144 8798,2176 8818,2240C8850,2340 8882,2401 8946,2487C9091,2677 9299,2771 9546,2757C9711,2748 9836,2698 9946,2597C9991,2556 9999,2545 9988,2534C9981,2528 9737,2361 9445,2165C9154,1969 8911,1804 8906,1800C8899,1793 8974,1679 9020,1627C9025,1621 9931,2227 10302,2485C10319,2496 10316,2503 10271,2566C10173,2706 10003,2839 9840,2903C9716,2952 9540,2974 9393,2959Z" style="fill:white;fill-rule:nonzero;"/>
        </g>
        <g transform="matrix(1,0,0,1,-1074.77,384.625)">
            <path d="M11410,2960C11260,2945 11099,2888 10983,2809C10814,2694 10684,2509 10628,2305C10610,2238 10607,2197 10606,2055C10606,1910 10609,1872 10628,1795C10714,1455 10985,1206 11337,1145C11393,1135 11489,1130 11616,1130L11810,1130L11810,1348L11588,1353C11340,1358 11297,1366 11170,1428C11066,1479 10948,1596 10897,1700C10837,1822 10825,1884 10826,2055C10826,2189 10829,2213 10853,2285C10868,2329 10896,2394 10917,2429C10971,2519 11083,2621 11184,2670C11302,2728 11370,2740 11608,2740L11810,2740L11810,2970L11648,2969C11558,2968 11451,2964 11410,2960Z" style="fill:white;fill-rule:nonzero;"/>
        </g>
        <g transform="matrix(1,0,0,1,-1074.77,384.625)">
            <path d="M14600,2959C14403,2936 14220,2843 14083,2696C14004,2612 13967,2558 13920,2457C13860,2330 13839,2236 13833,2075C13827,1911 13843,1799 13891,1667C13953,1495 14111,1304 14269,1210C14472,1089 14756,1058 14964,1134C15043,1162 15168,1236 15234,1292L15280,1332L15280,1600L15203,1522C15034,1353 14888,1292 14675,1303C14508,1311 14389,1368 14260,1499C14117,1644 14050,1814 14050,2031C14050,2247 14127,2432 14275,2575C14477,2770 14747,2813 14995,2691C15171,2604 15310,2413 15354,2198C15367,2134 15370,2038 15370,1625L15370,1130L15580,1130L15580,1644C15580,2197 15577,2233 15526,2380C15460,2572 15305,2755 15118,2863C15045,2905 14901,2949 14799,2960C14695,2971 14704,2971 14600,2959Z" style="fill:white;fill-rule:nonzero;"/>
        </g>
        <g transform="matrix(1,0,0,1,-1074.77,384.625)">
            <path d="M16970,2372C16970,2046 16974,1780 16980,1731C17003,1555 17066,1418 17182,1295C17281,1191 17407,1123 17538,1105L17590,1098L17590,560L17820,560L17820,1098L17887,1110C18084,1144 18252,1277 18349,1474C18426,1632 18423,1601 18427,2303L18431,2930L18220,2930L18220,2366C18220,1742 18217,1705 18159,1582C18120,1501 18019,1395 17943,1356C17789,1279 17593,1281 17451,1362C17376,1405 17291,1495 17252,1571C17190,1696 17190,1695 17190,2342L17190,2930L16970,2930L16970,2372Z" style="fill:white;fill-rule:nonzero;"/>
        </g>
        <g transform="matrix(4.77548,0,0,-4.77548,4403.47,2537.2)">
            <g transform="matrix(1,0,0,1,-600,-400)">
                <g id="Layer-1" serif:id="Layer 1">
                    <g transform="matrix(1,0,0,1,1009.4,506.362)">
                        <path d="M0,-7.203L-12.072,-32.209C-12.009,-33.156 -11.961,-34.107 -11.961,-35.062C-11.961,-63.408 -41.439,-89.533 -91.03,-110.451L-91.03,-93.058C-95.866,-94.977 -100.901,-96.845 -106.147,-98.651L-106.147,-106.759C-177.021,-132.319 -282.53,-148.537 -400.388,-148.537C-503.361,-148.537 -596.917,-136.157 -666.179,-115.983L-666.179,-87.737L-666.181,-87.737L-666.181,-121.925C-737.141,-99.375 -781.135,-68.048 -781.135,-33.41C-781.135,-27.95 -780.034,-22.572 -777.918,-17.297L-785.146,-4.43C-785.146,-4.43 -790.938,3.082 -780.74,18.932C-771.746,32.909 -726.692,87.617 -702.913,116.267C-692.699,130.954 -685.772,140.001 -685.167,139.126C-684.212,137.74 -691.518,110.165 -711.802,78.703C-721.268,61.808 -732.57,39.42 -739.356,22.884C-720.414,34.874 -609.126,90.913 -382.124,90.685C-150.13,90.453 -47.009,17.834 -35.691,7.948C-39.646,23.837 -53.159,55.981 -63.936,78.586C-81.642,110.917 -88.056,139.064 -87.232,140.456C-86.708,141.334 -80.667,132.015 -71.756,116.913C-51.025,87.37 -11.739,30.974 -3.889,16.608C5.007,0.323 0,-7.203 0,-7.203" style="fill:rgb(165,43,0);fill-rule:nonzero;"/>
                    </g>
                    <g transform="matrix(1,0,0,1,1079.49,294.885)">
                        <path d="M0,204.135L-79.343,145.689C-80.088,143.089 -80.833,140.488 -81.603,137.908L-55.541,100.154C-52.881,96.314 -52.345,91.322 -54.072,86.943C-55.803,82.585 -59.587,79.461 -64.062,78.696L-108.128,71.217C-109.837,67.732 -111.626,64.301 -113.422,60.898L-94.907,18.51C-93.004,14.193 -93.402,9.175 -95.929,5.256C-98.446,1.319 -102.715,-0.981 -107.267,-0.802L-151.991,0.823C-154.306,-2.193 -156.658,-5.18 -159.058,-8.114L-148.78,-53.546C-147.738,-58.158 -149.054,-62.989 -152.267,-66.34C-155.462,-69.679 -160.105,-71.062 -164.52,-69.979L-208.082,-59.27C-210.902,-61.763 -213.77,-64.223 -216.67,-66.635L-215.103,-113.276C-214.935,-117.997 -217.136,-122.484 -220.915,-125.105C-224.692,-127.741 -229.485,-128.137 -233.616,-126.179L-274.254,-106.858C-277.527,-108.736 -280.819,-110.595 -284.146,-112.395L-291.327,-158.356C-292.056,-163.012 -295.051,-166.968 -299.246,-168.774C-303.431,-170.591 -308.222,-170.002 -311.894,-167.238L-348.126,-140.053C-351.695,-141.238 -355.279,-142.373 -358.905,-143.46L-374.522,-187.045C-376.11,-191.488 -379.772,-194.751 -384.238,-195.669C-388.688,-196.578 -393.266,-195.037 -396.352,-191.589L-426.851,-157.47C-430.536,-157.893 -434.228,-158.28 -437.927,-158.601L-461.476,-198.277C-463.86,-202.295 -468.073,-204.741 -472.615,-204.741C-477.144,-204.741 -481.365,-202.295 -483.733,-198.277L-507.288,-158.601C-510.989,-158.28 -514.696,-157.893 -518.376,-157.47L-548.875,-191.589C-551.965,-195.037 -556.559,-196.578 -560.997,-195.669C-565.457,-194.739 -569.125,-191.488 -570.704,-187.045L-586.333,-143.46C-589.954,-142.373 -593.538,-141.23 -597.113,-140.053L-633.333,-167.238C-637.016,-170.012 -641.811,-170.599 -646.001,-168.774C-650.182,-166.968 -653.189,-163.012 -653.914,-158.356L-661.1,-112.395C-664.422,-110.595 -667.714,-108.746 -670.995,-106.858L-711.629,-126.179C-715.756,-128.145 -720.574,-127.741 -724.333,-125.105C-728.106,-122.484 -730.313,-117.997 -730.143,-113.276L-728.581,-66.635C-731.475,-64.223 -734.337,-61.763 -737.172,-59.27L-780.726,-69.979C-785.149,-71.053 -789.788,-69.679 -792.991,-66.34C-796.212,-62.989 -797.517,-58.158 -796.482,-53.546L-786.225,-8.114C-788.603,-5.169 -790.958,-2.193 -793.267,0.823L-837.991,-0.802C-842.504,-0.937 -846.812,1.319 -849.334,5.256C-851.861,9.175 -852.244,14.193 -850.363,18.51L-831.835,60.898C-833.634,64.301 -835.421,67.732 -837.144,71.217L-881.207,78.696C-885.686,79.45 -889.459,82.572 -891.201,86.943C-892.929,91.322 -892.368,96.314 -889.727,100.154L-863.661,137.908C-863.862,138.575 -864.048,139.247 -864.248,139.916L-937.944,218.201C-937.944,218.201 -949.24,227.052 -932.797,247.855C-918.297,266.206 -843.846,338.951 -804.526,377.06C-787.92,396.408 -776.542,408.389 -775.354,407.353C-773.478,405.708 -783.326,370.506 -816.036,329.204C-841.252,292.148 -873.977,235.155 -866.303,228.586C-866.303,228.586 -857.574,217.505 -840.061,209.529C-839.42,210.041 -840.723,209.022 -840.061,209.529C-840.061,209.529 -470.466,380.02 -127.632,212.413C-88.468,205.388 -64.759,226.368 -64.759,226.368C-56.583,231.108 -77.755,289.712 -95.166,328.505C-118.845,372.555 -122.317,406.927 -120.31,408.119C-119.042,408.876 -110.427,395.766 -98.138,374.902C-67.814,332.649 -10.492,252.1 0,232.534C11.895,210.352 0,204.135 0,204.135" style="fill:rgb(247,76,0);fill-rule:nonzero;"/>
                    </g>
                    <g transform="matrix(1,0,0,1,917.896,244.679)">
                        <path d="M0,232.466C0,232.466 53.179,230 123.032,159.004L132.93,137.025C132.93,137.025 24.513,29.177 193.048,-45.266C193.048,-45.266 178.293,-21.154 182.622,72.006C182.622,72.006 233.437,54.357 248.336,-27.934C248.336,-27.934 322.456,69.79 167.834,161.443C167.834,161.443 95.294,277.732 -6.971,266.593L0,232.466Z" style="fill:rgb(247,76,0);fill-rule:nonzero;"/>
                    </g>
                    <g transform="matrix(1,0,0,1,676.997,488.361)">
                        <path d="M0,-78.192C0,-78.192 36.935,-118.635 73.871,-78.192C73.871,-78.192 102.893,-24.265 73.871,2.695C73.871,2.695 26.384,40.443 0,2.695C0,2.695 -31.658,-26.964 0,-78.192" style="fill-rule:nonzero;"/>
                    </g>
                    <g transform="matrix(1,0,0,1,719.761,425.169)">
                        <path d="M0,0.004C0,15.75 -9.282,28.518 -20.732,28.518C-32.18,28.518 -41.462,15.75 -41.462,0.004C-41.462,-15.746 -32.18,-28.514 -20.732,-28.514C-9.282,-28.514 0,-15.746 0,0.004" style="fill:white;fill-rule:nonzero;"/>
                    </g>
                    <g transform="matrix(1,0,0,1,512.148,482.736)">
                        <path d="M0,-83.609C0,-83.609 63.355,-111.661 80.648,-49.047C80.648,-49.047 98.762,23.933 28.618,28.052C28.618,28.052 -60.826,10.824 0,-83.609" style="fill-rule:nonzero;"/>
                    </g>
                    <g transform="matrix(1,0,0,1,543.968,426.204)">
                        <path d="M0,0.002C0,16.241 -9.572,29.411 -21.381,29.411C-33.185,29.411 -42.76,16.241 -42.76,0.002C-42.76,-16.242 -33.185,-29.409 -21.381,-29.409C-9.572,-29.409 0,-16.242 0,0.002" style="fill:white;fill-rule:nonzero;"/>
                    </g>
                    <g transform="matrix(1,0,0,1,593.317,576.574)">
                        <path d="M0,-40.271L80.796,-46.755C80.796,-46.755 78.058,-33.749 67.517,-23.986C67.517,-23.986 39.727,6.484 7.844,-26.519C7.844,-26.519 2.627,-32.148 0,-40.271" style="fill-rule:nonzero;"/>
                    </g>
                    <g transform="matrix(1,0,0,1,269.796,270.778)">
                        <path d="M0,190.741C-0.667,190.741 -1.321,190.79 -1.973,190.842C-28.207,184.871 -101.946,165.657 -121.437,134.479C-121.437,134.479 -22.21,21.607 -177.297,-50.54L-159.24,74.338C-159.24,74.338 -207.049,42.389 -217.366,-27.008C-217.366,-27.008 -333.789,57.486 -165.982,138.466C-165.982,138.466 -150.762,195.653 -4.633,241.281L-4.526,240.846C-3.055,241.118 -1.549,241.281 0,241.281C13.808,241.281 25.003,229.969 25.003,216.01C25.003,202.054 13.808,190.741 0,190.741" style="fill:rgb(247,76,0);fill-rule:nonzero;"/>
                    </g>
                </g>
            </g>
        </g>
    </g>
</svg>
